<?xml version="1.0" standalone="no"?>
<svg xmlns="http://www.w3.org/2000/svg" width="24" height="24"><rect width="24" height="24" opacity="0"></rect><g><path d="M7.34 7.94Q6.96 7.94 6.67 8.22Q6.38 8.5 6.38 8.9Q6.38 9.29 6.67 9.56Q6.96 9.84 7.34 9.84Q7.73 9.84 8 9.56Q8.28 9.29 8.28 8.9Q8.28 8.5 8 8.22Q7.73 7.94 7.34 7.94ZM3.24 6.98Q3.24 7.13 3.34 7.22Q3.43 7.32 3.55 7.32Q3.67 7.32 3.77 7.22Q3.86 7.13 3.86 6.98Q3.86 6.86 3.77 6.77Q3.67 6.67 3.55 6.67Q3.43 6.67 3.34 6.77Q3.24 6.86 3.24 6.98ZM3.86 10.78Q3.86 10.92 3.96 11.02Q4.06 11.11 4.18 11.11Q4.32 11.11 4.42 11.02Q4.51 10.92 4.51 10.78Q4.51 10.66 4.42 10.56Q4.32 10.46 4.18 10.46Q4.06 10.46 3.96 10.56Q3.86 10.66 3.86 10.78ZM6.38 5.74Q6.38 5.86 6.48 5.95Q6.58 6.05 6.7 6.05Q6.84 6.05 6.94 5.95Q7.03 5.86 7.03 5.74Q7.03 5.62 6.94 5.52Q6.84 5.42 6.7 5.42Q6.58 5.42 6.48 5.52Q6.38 5.62 6.38 5.74ZM8.9 4.46Q8.9 4.61 9 4.7Q9.1 4.8 9.24 4.8Q9.36 4.8 9.46 4.7Q9.55 4.61 9.55 4.46Q9.55 4.34 9.46 4.25Q9.36 4.15 9.24 4.15Q9.1 4.15 9 4.25Q8.9 4.34 8.9 4.46ZM19.01 6.07Q18.79 5.76 18.29 5.35Q17.78 4.94 16.66 4.68Q15.53 4.42 13.8 4.73Q11.71 5.11 10.55 6.52Q9.38 7.92 9.22 10.13Q8.83 10.42 8.53 10.9Q8.23 11.38 8.11 11.98Q7.9 12.98 8.23 14.06Q8.57 15.14 9.16 15.92Q9.74 16.7 10.15 16.78Q10.39 16.8 10.79 16.67Q11.18 16.54 11.62 16.27Q11.9 16.63 12.38 17.11L12.5 17.23L12.29 19.3Q12.26 19.49 12.35 19.63Q12.43 19.78 12.59 19.82Q12.74 19.87 12.96 19.8L17.88 18.12Q18.05 18.07 18.14 17.94Q18.24 17.81 18.24 17.64L18.24 14.76Q18.31 14.35 18.54 13.87Q18.77 13.39 19.15 13.01Q19.7 12.46 20.17 11.72Q20.64 10.99 20.76 10.44Q20.74 9.31 20.12 8.05Q19.51 6.79 19.06 6.14L19.03 6.1ZM13.97 5.69Q17.28 5.11 18.31 6.84Q16.06 7.97 12.91 11.35Q12.36 11.16 12.05 10.92L11.86 10.8Q11.62 10.63 11.36 10.49Q11.11 10.34 10.85 10.22Q10.46 10.03 10.25 9.96Q10.44 8.14 11.34 7.07Q12.24 6 13.97 5.69ZM13.37 18.6L13.54 17.14Q13.56 16.82 13.34 16.63L13.22 16.54Q12.86 16.13 12.48 15.72Q13.1 15.29 13.2 15.1Q13.27 14.98 13.33 14.83Q13.39 14.69 13.42 14.54L13.46 14.35Q13.66 14.3 13.85 14.28Q15.94 13.92 17.4 14.04Q17.26 14.45 17.26 14.69L17.23 17.3ZM18.46 12.29Q18.26 12.48 18.1 12.71Q17.93 12.94 17.81 13.15Q17.62 13.42 17.5 13.73Q16.58 13.66 15.53 13.75Q14.47 13.85 13.68 13.99L13.54 14.02Q13.7 13.34 13.7 12.22Q13.7 11.83 13.6 11.68Q13.49 11.52 13.22 11.45Q13.92 10.7 14.38 10.27Q15.43 9.24 16.48 8.39Q17.52 7.54 18.46 7.08Q18.91 7.8 19.31 8.7Q19.7 9.6 19.75 10.34Q19.66 10.68 19.32 11.22Q18.98 11.76 18.46 12.29Z" fill="rgba(0,0,0,0.9019607843137255)"></path></g></svg>