<svg viewBox="0 0 56 56" xmlns="http://www.w3.org/2000/svg" xmlns:xlink="http://www.w3.org/1999/xlink" width="56.000000" height="56.000000" fill="none" customFrame="#000000">
	<defs>
		<clipPath id="clipPath_0">
			<rect width="72.000000" height="72.000000" x="0.000000" y="0.000000" fill="rgb(255,255,255)" />
		</clipPath>
	</defs>
	<g id="组合 31024">
		<g id="svg 7" clip-path="url(#clipPath_0)" customFrame="url(#clipPath_0)">
			<rect id="svg 7" width="72.000000" height="72.000000" x="0.000000" y="0.000000" />
			<rect id="矩形 543466" width="72.000000" height="72.000000" x="0.000000" y="0.000000" opacity="0" fill="rgb(0,0,0)" />
			<g id="组合 31023">
				<path id="矢量 1838" d="M5.97021 57.0302C5.97021 58.6502 6.38021 60.1502 7.20021 61.5302C8.02021 62.8902 9.11021 63.9802 10.4702 64.8002C11.8502 65.6201 13.3502 66.0302 14.9702 66.0302L57.0302 66.0302C58.6502 66.0302 60.1502 65.6201 61.5302 64.8002C62.8902 63.9802 63.9802 62.8902 64.8002 61.5302C65.6202 60.1502 66.0302 58.6502 66.0302 57.0302L66.0302 27.6602L5.97021 27.6602L5.97021 57.0302Z" fill="rgb(176,165,134)" fill-opacity="0.300000012" fill-rule="nonzero" />
				<path id="矢量 1839" d="M54.5702 7.56062L54.5702 12.6606C54.5702 13.8606 54.2702 14.9606 53.6702 15.9606C53.0702 16.9406 52.2802 17.7306 51.3002 18.3306C50.3202 18.9306 49.2302 19.2306 48.0302 19.2306C46.8302 19.2306 45.7202 18.9306 44.7002 18.3306C43.7002 17.7306 42.9002 16.9406 42.3002 15.9606C41.7002 14.9606 41.4002 13.8606 41.4002 12.6606L41.4002 7.56062L30.6602 7.56062L30.6602 12.6606C30.6602 13.8606 30.3602 14.9606 29.7602 15.9606C29.1602 16.9406 28.3702 17.7306 27.3902 18.3306C26.4102 18.9306 25.3202 19.2306 24.1202 19.2306C22.9202 19.2306 21.8202 18.9306 20.8202 18.3306C19.8002 17.7306 18.9902 16.9406 18.3902 15.9606C17.7902 14.9606 17.4902 13.8606 17.4902 12.6606L17.4902 7.56062L15.0602 7.56062C13.4202 7.56062 11.9002 7.97062 10.5002 8.79062C9.12021 9.61062 8.02021 10.7006 7.20021 12.0606C6.38021 13.4206 5.97021 14.9206 5.97021 16.5606L5.97021 23.1006L66.0302 23.1006L66.0302 16.5606C66.0302 14.9206 65.6202 13.4106 64.8002 12.0306C63.9802 10.6306 62.8902 9.54062 61.5302 8.76062C60.1502 7.96062 58.6502 7.56062 57.0302 7.56062L54.5702 7.56062ZM24.0602 15.6306C24.8602 15.6306 25.5602 15.3406 26.1602 14.7606C26.7602 14.1806 27.0602 13.4606 27.0602 12.6006L27.0602 6.42062C27.0602 5.54062 26.7602 4.82062 26.1602 4.26062C25.5602 3.68062 24.8602 3.39062 24.0602 3.39062C23.2402 3.39062 22.5302 3.68062 21.9302 4.26062C21.3302 4.82062 21.0302 5.54062 21.0302 6.42062L21.0302 12.6006C21.0302 13.4606 21.3302 14.1806 21.9302 14.7606C22.5302 15.3406 23.2402 15.6306 24.0602 15.6306ZM48.0302 15.6306C48.8502 15.6306 49.5402 15.3406 50.1002 14.7606C50.6802 14.1806 50.9702 13.4606 50.9702 12.6006L50.9702 6.42062C50.9702 5.54062 50.6802 4.82062 50.1002 4.26062C49.5402 3.68062 48.8502 3.39062 48.0302 3.39062C47.2102 3.39062 46.5002 3.68062 45.9002 4.26062C45.3002 4.82062 45.0002 5.54062 45.0002 6.42062L45.0002 12.6006C45.0002 13.4606 45.3002 14.1806 45.9002 14.7606C46.5002 15.3406 47.2102 15.6306 48.0302 15.6306Z" fill="rgb(176,165,134)" fill-opacity="0.300000012" fill-rule="nonzero" />
			</g>
		</g>
	</g>
</svg>
