<?xml version="1.0" standalone="no"?>
<svg xmlns="http://www.w3.org/2000/svg" width="24" height="24"><rect width="24" height="24" opacity="0"></rect><g><path d="M13.85 5.02Q12.53 5.28 11.52 5.53Q10.51 5.78 9 6.26Q8.76 6.34 8.59 6.55Q7.68 7.54 6.92 8.51Q6.17 9.48 5.9 10.08Q5.78 10.34 5.84 10.55Q5.9 10.75 6.07 10.82Q6.22 10.9 6.37 10.86Q6.53 10.82 6.62 10.7L6.84 10.44Q7.2 10.01 9.41 8.18L9.7 7.94Q10.7 7.75 11.38 7.68Q12.05 7.61 12.77 7.63Q12.79 7.7 12.77 7.78Q12.74 7.85 12.72 7.87Q12.05 8.23 11.21 8.47Q10.68 9.79 10.15 11.11Q9.86 11.74 9.95 12.34Q10.03 12.94 10.54 13.39Q10.75 13.61 11.62 14.16Q12.48 14.71 13.34 15.26Q13.85 15.58 14.33 15.89Q15.22 16.46 15.65 17.64Q16.37 19.54 17.59 22.18Q17.69 22.37 17.88 22.48Q18.07 22.58 18.29 22.54Q18.53 22.49 18.67 22.27Q18.82 22.06 18.77 21.79Q18.53 20.45 18.14 18.77Q17.76 17.09 17.35 15.72Q17.26 15.41 17.11 15.18Q16.97 14.95 16.7 14.69Q16.1 14.11 13.68 12L16.08 8.18Q16.37 7.68 16.37 7.1Q16.37 6.53 16.08 6.02Q15.72 5.47 15.12 5.2Q14.52 4.92 13.85 5.02ZM16.03 1.44Q15.38 1.44 14.93 1.91Q14.47 2.38 14.47 3Q14.47 3.67 14.93 4.13Q15.38 4.58 16.03 4.58Q16.68 4.58 17.14 4.13Q17.59 3.67 17.59 3Q17.59 2.38 17.14 1.91Q16.68 1.44 16.03 1.44Z" fill="rgba(255,255,255,1)"></path><path d="M8.4 15.12Q8.3 15.34 8.08 15.46Q7.85 15.58 7.56 15.6Q4.73 15.74 2.71 15.94Q2.33 15.96 2.14 16.18Q1.94 16.39 1.99 16.63Q2.04 16.85 2.22 16.99Q2.4 17.14 2.76 17.16Q4.51 17.45 8.23 17.57Q8.9 17.62 9.3 17.48Q9.7 17.35 10.08 16.92L11.52 15.02Q10.42 14.35 10.08 14.11Q9.89 13.94 9.72 13.75Q9.55 13.56 9.43 13.39L8.4 15.12ZM16.9 8.04Q16.78 8.4 16.54 8.86Q16.25 9.41 15.72 10.18Q15.84 10.42 15.94 10.66Q16.01 10.8 16.06 10.92Q16.1 11.04 16.15 11.09Q16.25 11.26 16.45 11.35Q16.66 11.45 16.9 11.47Q19.3 11.57 21.12 11.21Q21.26 11.16 21.36 11.04Q21.46 10.92 21.46 10.75Q21.46 10.56 21.32 10.43Q21.19 10.3 21 10.3Q19.85 10.27 18.85 10.13Q17.86 9.98 17.5 9.84L16.9 8.04Z" fill="rgba(255,255,255,1)"></path></g></svg>