<?xml version="1.0" standalone="no"?>
<svg xmlns="http://www.w3.org/2000/svg" width="24" height="24"><rect width="24" height="24" opacity="0"></rect><g><path d="M23.5 12.62Q23.5 11.35 22.85 10.66Q22.2 9.96 20.83 9.53Q20.26 8.11 19.79 7.14Q19.32 6.17 18.67 5.26Q18.05 4.66 16.15 4.33Q14.26 4.01 11.93 4.01Q9.62 4.03 7.78 4.36Q5.93 4.68 5.3 5.26Q4.54 6.31 4.19 7.03Q3.84 7.75 3.38 9L3.19 9.53Q1.87 9.96 1.14 10.67Q0.41 11.38 0.5 12.36Q0.58 13.44 0.77 16.3Q0.96 19.15 1.01 19.32Q1.15 19.82 1.43 20.09Q1.7 20.35 2.14 20.35Q2.33 20.35 2.5 20.38Q3.22 20.42 3.94 20.33Q4.66 20.26 4.9 19.86Q5.14 19.46 5.09 19.18L5.09 18.84L18.72 18.84L18.72 19.13Q18.7 19.39 18.8 19.63Q18.91 19.87 19.14 20.06Q19.37 20.26 19.73 20.33Q20.06 20.38 20.68 20.4Q21.29 20.42 21.65 20.4Q22.1 20.38 22.43 20.15Q22.75 19.92 22.8 19.54Q22.87 19.3 23.14 16.49Q23.4 13.68 23.5 12.62ZM6.55 6.53Q7.06 6.19 8.58 6.01Q10.1 5.83 11.98 5.83Q13.87 5.83 15.4 6.01Q16.92 6.19 17.38 6.53Q17.83 7.22 18.24 8.09Q18.65 8.95 19.15 10.2Q17.16 9.94 15.41 9.79Q13.66 9.65 11.98 9.62Q10.18 9.62 8.44 9.74Q6.7 9.86 4.82 10.15Q4.97 9.82 5.02 9.65Q5.5 8.5 5.83 7.8Q6.17 7.1 6.55 6.53ZM6.46 16.03Q6.46 16.22 6.3 16.37Q6.14 16.51 5.93 16.51L3.65 16.51Q3.43 16.51 3.28 16.37Q3.12 16.22 3.12 16.03L3.12 15.22Q3.12 15.02 3.29 14.88Q3.46 14.74 3.65 14.74L6.05 15.02Q6.24 15.05 6.34 15.17Q6.43 15.29 6.46 15.46L6.46 16.03ZM7.75 16.3Q7.51 16.3 7.37 16.14Q7.22 15.98 7.22 15.74Q7.22 15.5 7.37 15.35Q7.51 15.19 7.75 15.19L15.96 15.19Q16.18 15.19 16.34 15.35Q16.51 15.5 16.51 15.74Q16.51 15.98 16.34 16.14Q16.18 16.3 15.96 16.3L7.75 16.3ZM20.59 16.03Q20.59 16.22 20.44 16.37Q20.28 16.51 20.06 16.51L17.81 16.51Q17.57 16.51 17.41 16.37Q17.26 16.22 17.26 16.03L17.26 15.46Q17.3 15.29 17.39 15.18Q17.47 15.07 17.66 15.02L20.06 14.74Q20.3 14.74 20.45 14.87Q20.59 15 20.59 15.22L20.59 16.03Z" fill="rgba(0,0,0,0.9019607843137255)"></path></g></svg>