<?xml version="1.0" standalone="no"?>
<svg xmlns="http://www.w3.org/2000/svg" width="24" height="24"><rect width="24" height="24" opacity="0"></rect><g mask="url(#hms_mask_0)"><path d="M15.07 19.27Q15.07 20.14 15.94 20.48Q16.8 20.83 17.68 20.51Q18.55 20.18 18.58 19.32L18.58 12.96Q17.88 12.7 17.47 12.41L16.75 12.31Q16.34 12.24 15.95 12.17Q15.55 12.1 15.07 11.93L15.07 19.27ZM13.3 4.75Q12.41 5.74 12.31 7.13Q12.22 8.52 13.01 9.67Q13.58 10.54 14.44 10.97Q15.29 11.4 16.58 11.59L16.82 11.64Q16.49 11.02 16.6 10.01Q16.7 9 17.14 8.26Q18.14 6.34 20.23 5.98Q19.56 5.04 18.9 4.46Q18.24 3.89 17.45 3.6Q16.46 3.19 15.28 3.53Q14.09 3.86 13.3 4.75ZM10.75 4.75Q9.96 3.86 8.77 3.53Q7.58 3.19 6.6 3.6Q5.81 3.89 5.15 4.46Q4.49 5.04 3.82 5.98Q5.9 6.34 6.91 8.26Q7.34 9 7.45 10.01Q7.56 11.02 7.22 11.64L7.46 11.59Q8.76 11.4 9.61 10.97Q10.46 10.54 11.04 9.67Q11.83 8.52 11.74 7.13Q11.64 5.74 10.75 4.75ZM8.98 11.93Q8.28 12.17 7.79 12.26Q7.3 12.36 6.58 12.41Q6.31 12.6 6.06 12.72Q5.81 12.84 5.47 12.96L5.47 19.32Q5.5 20.18 6.37 20.51Q7.25 20.83 8.11 20.48Q8.98 20.14 8.98 19.27L8.98 11.93Z" fill="rgba(0,0,0,0.9019607843137255)"></path><path d="M3.62 6.62Q3.12 6.62 2.5 7.12Q1.87 7.61 1.44 8.35Q1.01 9.1 1.01 9.79Q1.01 10.94 1.8 11.78Q2.59 12.62 3.7 12.62Q4.3 12.62 5.24 12.31Q6.19 12 6.43 11.57Q6.82 10.87 6.74 10.1Q6.67 9.34 6.26 8.54Q5.88 7.82 5.1 7.22Q4.32 6.62 3.62 6.62ZM20.42 6.62Q19.73 6.62 18.95 7.22Q18.17 7.82 17.78 8.54Q17.38 9.34 17.3 10.1Q17.23 10.87 17.62 11.57Q17.86 12 18.8 12.31Q19.75 12.62 20.35 12.62Q21.46 12.62 22.25 11.78Q23.04 10.94 23.04 9.79Q23.04 9.1 22.61 8.35Q22.18 7.61 21.55 7.12Q20.93 6.62 20.42 6.62Z" fill="rgba(0,0,0,0.9019607843137255)"></path></g><defs><mask id="hms_mask_0"><rect width="24" height="24" fill="#ffffff"></rect><g><path d="M1.82 9.74Q2.06 9.58 2.39 9.77Q2.71 9.96 2.93 10.37Q3.17 10.78 3.18 11.17Q3.19 11.57 2.93 11.69Q2.35 11.95 1.82 11.06Q1.61 10.63 1.6 10.26Q1.58 9.89 1.82 9.74ZM22.22 9.74Q22.46 9.89 22.45 10.26Q22.44 10.63 22.22 11.06Q21.7 11.95 21.12 11.69Q20.86 11.57 20.87 11.17Q20.88 10.78 21.12 10.37Q21.34 9.96 21.66 9.77Q21.98 9.58 22.22 9.74Z" fill="#000000"></path></g></mask></defs></svg>