<svg viewBox="0 0 12 12" xmlns="http://www.w3.org/2000/svg" xmlns:xlink="http://www.w3.org/1999/xlink" width="12.000000" height="12.000000" fill="none">
	<rect id="面性_会议ID 1" width="12.000000" height="12.000000" x="0.000000" y="0.000000" />
	<path id="矢量 1843" d="M3.36805 1.12305L8.60805 1.12305C9.00201 1.12322 9.389 1.22707 9.73012 1.42415C10.0712 1.62124 10.3545 1.90462 10.5514 2.24584C10.7484 2.58705 10.852 2.97408 10.852 3.36805L10.852 8.60805C10.8519 9.00201 10.748 9.389 10.5509 9.73012C10.3539 10.0712 10.0705 10.3545 9.72926 10.5514C9.38804 10.7484 9.00101 10.852 8.60705 10.852L3.36805 10.852C2.97397 10.852 2.58683 10.7483 2.24555 10.5513C1.90426 10.3542 1.62086 10.0708 1.42382 9.72955C1.22678 9.38826 1.12305 9.00113 1.12305 8.60705L1.12305 3.36805C1.12305 2.97397 1.22678 2.58683 1.42382 2.24555C1.62086 1.90426 1.90426 1.62086 2.24555 1.42382C2.58683 1.22678 2.97397 1.12305 3.36805 1.12305L3.36805 1.12305ZM3.55505 4.06505L3.55505 7.69505C3.55505 7.76326 3.57664 7.82972 3.61673 7.8849C3.65683 7.94008 3.71336 7.98116 3.77823 8.00224C3.84311 8.02332 3.91299 8.02332 3.97786 8.00224C4.04273 7.98116 4.09927 7.94008 4.13936 7.8849C4.17945 7.82972 4.20105 7.76326 4.20105 7.69505L4.20105 4.06505C4.20105 3.99684 4.17945 3.93038 4.13936 3.87519C4.09927 3.82001 4.04273 3.77893 3.97786 3.75786C3.91299 3.73678 3.84311 3.73678 3.77823 3.75786C3.71336 3.77893 3.65683 3.82001 3.61673 3.87519C3.57664 3.93038 3.55505 3.99684 3.55505 4.06505ZM5.05305 4.49105L5.05305 7.27005C5.05305 7.68305 5.38805 8.01805 5.80105 8.01805L6.59705 8.01805C7.28705 8.01805 7.80705 7.82605 8.16705 7.44305C8.50705 7.07305 8.68205 6.55005 8.68205 5.88105C8.68205 5.20405 8.51405 4.68405 8.17905 4.32405C7.81905 3.93505 7.29905 3.74205 6.61005 3.74205L5.80105 3.74205C5.66963 3.74205 5.54054 3.77667 5.42676 3.84243C5.31298 3.90818 5.21853 4.00276 5.15293 4.11662C5.08732 4.23049 5.05287 4.35963 5.05305 4.49105L5.05305 4.49105ZM5.70505 4.29905L6.49005 4.29905C7.02805 4.29905 7.42405 4.42505 7.67605 4.68405C7.91605 4.93505 8.04105 5.33005 8.04105 5.88105C8.04105 6.41905 7.91605 6.81505 7.67105 7.07205C7.41905 7.32905 7.01605 7.46105 6.47805 7.46105L5.70505 7.46105L5.70505 4.29905L5.70505 4.29905Z" fill="rgb(176,165,134)" fill-opacity="0.600000024" fill-rule="nonzero" />
</svg>
