<?xml version="1.0" encoding="UTF-8"?>
<svg width="24px" height="24px" viewBox="0 0 24 24" version="1.1" xmlns="http://www.w3.org/2000/svg" xmlns:xlink="http://www.w3.org/1999/xlink">
    <title>ic_weather_ Body temperature</title>
    <g id="ic_weather_-Body-temperature" stroke="none" stroke-width="1" fill="none" fill-rule="evenodd">
        <g id="编组">
            <path d="M12,1 C14.0042592,1 15.6412737,2.57236105 15.744802,4.55084143 L15.75,4.75 L15.750833,12.891688 C16.9749685,13.9461554 17.75,15.5075685 17.75,17.25 C17.75,20.4256373 15.1756373,23 12,23 C8.82436269,23 6.25,20.4256373 6.25,17.25 C6.25,15.5067783 7.02573469,13.944739 8.25083297,12.8902535 L8.25,4.75 C8.25,2.67893219 9.92893219,1 12,1 Z M12,2.5 C10.809136,2.5 9.83435508,3.42516159 9.75519081,4.59595119 L9.75,4.75 L9.74978963,11.9569769 L9.75,11.956 L9.75050548,13.6434607 C9.75017879,13.6436649 9.74985212,13.6438692 9.74952549,13.6440735 L9.75,13.65 L9.72070896,13.662257 C9.56677624,13.7602547 9.41957583,13.8678867 9.27995687,13.9843039 C8.34498584,14.7639025 7.75,15.937468 7.75,17.25 C7.75,19.5972102 9.65278981,21.5 12,21.5 C14.3472102,21.5 16.25,19.5972102 16.25,17.25 C16.25,15.7476129 15.4704382,14.4273022 14.2937492,13.6715025 C14.2798777,13.6640581 14.265014,13.6570065 14.25,13.65 L14.25,10.5 L12.75,10.5 C12.3357864,10.5 12,10.1642136 12,9.75 C12,9.37030423 12.2821539,9.05650904 12.6482294,9.00684662 L12.75,9 L14.25,9 L14.25,7 L12.75,7 C12.3357864,7 12,6.66421356 12,6.25 C12,5.87030423 12.2821539,5.55650904 12.6482294,5.50684662 L12.75,5.5 L14.25,5.5 L14.25,4.75 C14.25,3.50735931 13.2426407,2.5 12,2.5 Z M12,15 C13.1045695,15 14,15.8954305 14,17 C14,18.1045695 13.1045695,19 12,19 C10.8954305,19 10,18.1045695 10,17 C10,15.8954305 10.8954305,15 12,15 Z" id="形状结合" fill="#000000" fill-rule="nonzero"></path>
            <rect id="Rectangle" x="0" y="0" width="24" height="24"></rect>
        </g>
    </g>
</svg>