<?xml version="1.0" standalone="no"?>
<svg xmlns="http://www.w3.org/2000/svg" width="24" height="24"><rect width="24" height="24" opacity="0"></rect><g mask="url(#hms_mask_0)"><path d="M9.5 0.62Q9.14 0.62 8.94 0.83Q8.74 1.03 8.74 1.37Q8.74 1.7 8.94 1.91Q9.14 2.11 9.48 2.11L14.09 2.14Q14.4 2.14 14.6 1.93Q14.81 1.73 14.81 1.39Q14.81 1.06 14.59 0.85Q14.38 0.65 14.04 0.65L9.5 0.62ZM3 12.77Q3 15.12 4.15 17.12Q5.3 19.13 7.28 20.32Q9.26 21.5 11.59 21.5L11.74 21.5Q14.09 21.5 16.1 20.35Q18.12 19.2 19.31 17.23Q20.5 15.26 20.5 12.91L20.5 12.77Q20.5 11.23 19.97 9.8Q19.44 8.38 18.43 7.13L20.23 5.33Q20.52 5.04 20.57 4.7Q20.62 4.37 20.35 4.15Q20.09 3.94 19.81 4.01Q19.54 4.08 19.22 4.39L17.47 6.14Q16.34 5.18 14.84 4.6Q13.34 4.01 11.88 4.01L11.76 4.01Q9.38 4.01 7.38 5.16Q5.38 6.31 4.19 8.29Q3 10.27 3 12.62L3 12.77Z" fill="rgba(255,255,255,1)"></path></g><defs><mask id="hms_mask_0"><rect width="24" height="24" fill="#ffffff"></rect><g><path d="M11.3 6.43Q11.64 6.43 11.84 6.64Q12.05 6.84 12.05 7.18L12.05 12.38L15.72 16.06L15.77 16.13Q15.96 16.34 15.95 16.61Q15.94 16.87 15.72 17.09Q15.48 17.33 15.2 17.33Q14.93 17.33 14.69 17.09L10.75 13.15Q10.58 12.98 10.58 12.67L10.58 7.18Q10.58 6.84 10.78 6.64Q10.97 6.43 11.3 6.43Z" fill="#000000"></path></g></mask></defs></svg>